<svg class="icon" viewBox="0 0 1024 1024" xmlns="http://www.w3.org/2000/svg" width="180" height="180"><defs><style/></defs><path d="M507.392 128.768c-105.472 0-191.232 85.76-191.232 191.232s85.76 191.232 191.232 191.232S698.624 425.472 698.624 320s-85.76-191.232-191.232-191.232zm0 356.608c-91.264 0-165.376-74.24-165.376-165.376 0-2.176.128-4.352.128-6.528 25.216-11.008 84.224-28.416 153.344 6.528 71.936 36.48 147.456 16 177.152 5.248-2.816 88.832-75.776 160.128-165.248 160.128z" fill="#1296db"/><path d="M403.328 377.216a23.168 23.168 0 1046.336 0 23.168 23.168 0 10-46.336 0zm161.92 0a23.168 23.168 0 1046.336 0 23.168 23.168 0 10-46.336 0zM841.472 669.44H798.72v.64a55.258 55.258 0 00-47.744 54.784c0 28.032 20.736 51.072 47.744 54.784v.64h42.752c9.984 0 18.176-8.192 18.176-18.176v-74.368c0-10.112-8.064-18.304-18.176-18.304zm-7.68 84.864h-29.184l-2.432-.384a29.709 29.709 0 01-25.472-29.184c0-14.592 10.88-27.136 25.472-29.184l2.432-.384h29.184v59.136z" fill="#1296db"/><path d="M794.368 791.168c-32.128-4.48-56.832-31.872-56.832-65.152s24.704-60.8 56.832-65.152v-.64h29.952l20.224-106.88c2.176-13.952-4.224-26.112-15.488-28.16-60.032-10.88-121.984-14.72-184.448-11.648-27.008 24.576-57.728 41.856-90.624 49.664-11.264 4.224-22.912 7.04-35.072 8.064l-1.92 327.296c82.944-22.016 169.856-23.68 250.496-4.736 9.6 2.304 20.352-5.376 21.888-15.744l13.824-86.144h-8.96v-.768zM219.264 779.52a55.258 55.258 0 0047.744-54.784c0-28.032-20.736-51.072-47.744-54.784v-.512h-42.752c-9.984 0-18.176 8.192-18.176 18.176v74.368c0 9.984 8.192 18.176 18.176 18.176h42.752v-.64zm-6.016-25.216h-29.184v-59.008h29.184l2.432.384c14.464 2.048 25.472 14.592 25.472 29.184S230.272 752 215.68 754.048l-2.432.256z" fill="#1296db"/><path d="M464 563.072c-32.896-7.808-63.616-25.088-90.624-49.664-62.464-3.072-124.416.768-184.448 11.648-11.136 2.048-17.664 14.208-15.488 28.16l20.224 106.88h29.952v.64c32.128 4.48 56.832 31.872 56.832 65.152s-24.704 60.8-56.832 65.152v.64h-8.96l13.824 86.144c1.664 10.368 12.288 17.92 21.888 15.744 80.64-18.944 167.68-17.28 250.496 4.736l-1.92-327.424c-12.032-.768-23.68-3.584-34.944-7.808z" fill="#1296db"/></svg>